<svg xmlns="http://www.w3.org/2000/svg" viewBox="0 0 32 32">
  <defs>
    <linearGradient id="bg" x1="0%" y1="0%" x2="100%" y2="100%">
      <stop offset="0%" stop-color="#1890ff"/>
      <stop offset="100%" stop-color="#0052b3"/>
    </linearGradient>
    <linearGradient id="rib" x1="0%" y1="0%" x2="0%" y2="100%">
      <stop offset="0%" stop-color="#ff4d4f"/>
      <stop offset="100%" stop-color="#d9363e"/>
    </linearGradient>
    <filter id="card-sh" x="-20%" y="-20%" width="140%" height="140%">
      <feDropShadow dx="0" dy="1.5" stdDeviation="1.2" flood-color="#001a33" flood-opacity="0.35"/>
    </filter>
    <filter id="rib-sh" x="-30%" y="-20%" width="160%" height="140%">
      <feDropShadow dx="0" dy="1" stdDeviation="0.8" flood-color="#000000" flood-opacity="0.2"/>
    </filter>
  </defs>
  <rect x="1" y="1" width="30" height="30" rx="7" fill="url(#bg)"/>
  <rect x="1.5" y="1.5" width="29" height="29" rx="6.5" fill="none" stroke="rgba(255,255,255,0.22)" stroke-width="1"/>
  <rect x="7" y="6" width="18" height="17" rx="3.5" fill="rgba(255,255,255,0.22)"/>
  <rect x="6" y="8.5" width="20" height="17.5" rx="3.5" fill="#ffffff" filter="url(#card-sh)"/>
  <path filter="url(#rib-sh)" d="M15.5 6V17L19 14.5L22.5 17V6H15.5Z" fill="url(#rib)"/>
  <rect x="9" y="12" width="5" height="2.5" rx="1.25" fill="#0984e3"/>
  <rect x="9" y="16" width="14" height="2.2" rx="1.1" fill="#636e72"/>
  <rect x="9" y="20" width="9.5" height="2.2" rx="1.1" fill="#b2bec3"/>
</svg>
